<svg width="359" height="245" viewBox="0 0 359 245" fill="none" xmlns="http://www.w3.org/2000/svg">
<g id="logo">
<g id="leg">
<path d="M142.012 202.412C145.005 202.323 148.002 202.155 151 202C148.936 207.545 144.218 212.036 142.497 217.287C145.613 225.767 141.322 234.721 134.557 240C132.962 237.983 131.543 235.835 130.062 233.737C133.374 230.515 136.498 226.481 135.768 221.513C130.34 224.399 124.944 227.723 118.823 228.874C118.048 226.502 117.383 224.089 117 221.623C127.269 218.581 137.505 212.579 142.012 202.412Z" fill="#D1953B"/>
<path d="M103.236 201.48C106.31 201.514 109.391 201.469 112.471 201.437C110.121 207.035 105.092 211.441 103.106 216.753C105.942 225.581 101.165 234.581 94.0036 239.709C92.4536 237.573 91.089 235.311 89.6596 233.097C93.1915 229.933 96.5653 225.928 96.0267 220.802C90.3385 223.533 84.6652 226.713 78.3394 227.635C77.645 225.17 77.0653 222.667 76.7764 220.122C87.4352 217.437 98.1856 211.715 103.236 201.48Z" fill="#D1953B"/>
</g>
<g id="Logo">
<g id="eye">
<path d="M205.013 98.7084C218.25 89.7676 238.28 96.5409 243.353 111.678C247.52 122.136 243.427 135.485 233.822 141.38C221.116 142.793 208.174 135.033 203.805 122.992C200.75 115.197 202.062 106.592 204.944 98.9716L205.013 98.7084ZM218.014 128.077C223.273 136.503 238.001 129.804 234.671 120.205C233.517 124.548 226.693 124.602 225.876 120.143C224.865 117.194 227.68 115.464 229.764 114.109C221.294 109.952 212.364 120.592 218.014 128.077Z" fill="white"/>
<path d="M197.826 135.145C189.294 123.886 192.907 106.26 204.944 98.9716C202.062 106.592 200.75 115.197 203.805 122.992C208.174 135.033 221.116 142.793 233.822 141.38C223.01 150.232 205.25 146.818 197.826 135.145Z" fill="#D0D2D3"/>
<path d="M218.014 128.077C212.364 120.592 221.294 109.952 229.764 114.109C227.68 115.464 224.865 117.194 225.876 120.143C226.693 124.602 233.517 124.548 234.671 120.205C238.001 129.804 223.273 136.503 218.014 128.077Z" fill="black"/>
</g>
<path id="eye-dot" d="M182.06 154.242C190.336 153.154 199.382 156.181 204.854 162.59C207.19 164.974 207.058 169.948 203.371 170.826C194.917 172.998 185.534 169.092 179.79 162.822C176.87 160.125 177.838 154.671 182.06 154.242Z" fill="black"/>
<g id="Group 145">
<path id="Vector" d="M195.193 99.4784C203.167 90.5957 216.102 86.9381 227.604 89.899C244.02 94.3462 254.561 112.742 249.678 129.165C244.787 146.466 224.331 157.574 207.376 149.957C187.238 143.002 180.779 114.833 195.193 99.4784ZM205.014 98.7082L204.944 98.9714C192.908 106.259 189.295 123.886 197.826 135.145C205.25 146.818 223.01 150.232 233.823 141.38C243.427 135.485 247.521 122.136 243.354 111.678C238.281 96.5407 218.251 89.7674 205.014 98.7082Z" fill="black"/>
<g id="Group 144">
<path id="Vector_2" d="M200.239 155.186C179.532 145.181 176.29 112.793 195.193 99.4785C180.779 114.833 187.238 143.002 207.376 149.957C224.331 157.574 244.787 146.466 249.678 129.165C248.648 152.241 219.924 167.084 200.239 155.186Z" fill="#681526"/>
<path id="Vector_3" d="M74.7745 141.268C83.5617 140.931 92.3179 141.771 101.043 142.677C96.0047 144.422 90.6875 147.395 88.8673 152.72C86.4856 159.103 90.9818 165.474 88.9215 171.841C87.4344 179.175 90.4435 186.564 95.2302 192.025C84.8319 188.425 76.5637 179.036 74.9449 168.075C74.4802 159.153 74.821 150.201 74.7745 141.268Z" fill="white"/>
<g id="Group 143">
<path id="Vector_4" d="M229.172 2.44216C237.967 0.255353 247.358 7.8879 247.819 16.8287C248.45 22.6343 246.591 28.3665 243.628 33.2897C263.294 40.0824 272.561 62.6549 269.142 82.1891C298.075 98.3018 328.154 112.785 357.196 128.809C327.848 128.995 298.501 128.824 269.157 128.89C269.142 135.211 269.138 141.527 269.157 147.848C287.018 147.94 304.887 147.689 322.748 147.964C304.345 158.027 285.419 167.42 266.923 177.375C262.004 191.452 248.582 201.964 233.788 203.536C205.858 203.725 177.92 203.42 149.99 203.679C147.144 203.826 144.297 203.985 141.455 204.07C132.149 203.923 122.843 203.961 113.536 203.989C113.017 207.097 112.646 210.228 112.193 213.347C110.551 212.875 108.905 212.384 107.348 211.668C104.865 210.51 102.53 209.055 100.404 207.333C99.0215 204.832 97.2362 202.553 94.0993 202.413C77.4041 198.423 64.8023 182.678 64.2795 165.605C64.2485 152.57 64.3453 139.534 64.2562 126.502C53.4746 135.779 38.3672 143.474 24.0381 138.133C18.4111 135.396 11.4828 130.287 13.1016 123.212C18.7984 115.692 29.5335 116.075 38.0535 114.236C21.0755 110.285 3.16425 95.7163 7.48619 76.4182C8.22201 69.1727 16.6064 68.5999 21.9082 70.9957C37.9334 77.7535 51.2633 89.3881 64.2601 100.674C64.3995 89.0901 64.1439 77.502 64.3492 65.9177C66.4443 47.5562 82.3611 31.9312 100.88 30.6849C138.523 30.3985 176.181 30.7081 213.832 30.5339C206.559 27.1241 199.139 23.7026 192.958 18.4813C190.189 16.5152 189.778 11.7893 193.279 10.4618C205.296 3.97873 220.435 9.10709 229.261 18.6168C227.727 13.6936 224.191 6.21586 229.172 2.44216ZM74.7745 71.2202C74.7203 94.5707 74.7241 117.921 74.7745 141.268C74.821 150.201 74.4802 159.153 74.9449 168.075C76.5637 179.036 84.8319 188.425 95.2301 192.025C90.4435 186.564 87.4344 179.175 88.9215 171.841C90.9818 165.474 86.4856 159.103 88.8673 152.72C90.6874 147.395 96.0047 144.422 101.043 142.677C116.251 138.106 133.585 139.379 147.167 130.032C134.209 142.859 114.365 142.398 99.6334 152.167C96.1247 154.47 95.7026 158.724 96.3958 162.505C106.271 151.509 121.46 147.619 135.615 145.959C124.264 151.064 112.576 156.212 103.483 164.959C99.4707 169.077 95.4431 174.72 97.2401 180.828C104.451 166.658 119.241 158.952 134.05 155.259C123.613 162.428 112.696 169.987 106.05 181.056C102.41 186.343 101.887 195.822 107.549 199.104C109.943 181.021 125.832 169.255 140.192 160.233C152.841 152.268 167.754 142.344 169.454 126.076C173.052 138.241 166.368 150.766 156.895 158.224C143.817 169.464 127.316 177.693 118.416 193.055C146.47 193.225 174.524 193.116 202.578 193.109C213.189 193.043 223.816 193.395 234.419 192.938C247.176 190.659 257.686 179.252 258.689 166.352C258.697 134.649 258.72 102.946 258.674 71.2434C259.599 55.8003 246.351 41.886 231.154 41.0113C188.586 41.0384 146.021 41.0345 103.452 41.0113C87.8294 41.1197 73.9031 55.5719 74.7745 71.2202ZM269.196 90.5415C269.184 92.2058 269.169 93.8701 269.173 95.5383C269.119 98.6347 269.142 101.735 269.204 104.831C269.08 110.529 269.165 116.222 269.157 121.919C289.063 121.741 308.996 122.279 328.89 121.652C308.903 111.45 289.109 100.887 269.196 90.5415ZM269.153 154.052C269.15 154.694 269.15 155.341 269.15 155.991C269.161 157.16 269.146 158.313 269.181 159.494C269.119 162.757 269.014 166.015 268.89 169.274C278.475 164.239 288.064 159.219 297.664 154.214C288.168 153.793 278.657 154.156 269.153 154.052Z" fill="black"/>
<g id="Vector_5">
<path d="M74.7746 71.2204C73.9032 55.5721 87.8295 41.1198 103.452 41.0115C146.021 41.0347 188.586 41.0386 231.154 41.0115C246.351 41.8862 259.6 55.8005 258.674 71.2436C252.257 61.7146 241.289 54.98 229.582 55.3825C187.66 55.2935 145.738 55.3864 103.816 55.336C92.1204 54.8716 81.2497 61.8113 74.7746 71.2204Z" fill="#CF2044"/>
<path d="M74.7746 71.2204C81.2497 61.8113 92.1204 54.8716 103.816 55.336C145.738 55.3864 187.66 55.2935 229.582 55.3825C241.289 54.98 252.257 61.7146 258.674 71.2436C258.72 102.947 258.697 134.649 258.689 166.352C257.686 179.253 247.176 190.659 234.419 192.939C223.816 193.395 213.189 193.043 202.578 193.109C192.149 176.532 174.756 165.393 156.895 158.224C166.368 150.766 173.052 138.241 169.455 126.076C167.754 142.344 152.841 152.268 140.192 160.233C125.832 169.255 109.943 181.021 107.549 199.104C101.887 195.822 102.41 186.343 106.051 181.056C112.696 169.987 123.613 162.428 134.05 155.26C119.241 158.952 104.451 166.658 97.2402 180.828C95.4432 174.72 99.4708 169.077 103.483 164.959C112.576 156.212 124.264 151.064 135.615 145.959C121.46 147.619 106.271 151.509 96.3959 162.505C95.7027 158.724 96.1248 154.47 99.6335 152.167C114.365 142.398 134.209 142.859 147.167 130.032C133.586 139.379 116.251 138.106 101.043 142.677C92.3179 141.771 83.5618 140.931 74.7746 141.268C74.7242 117.921 74.7204 94.5709 74.7746 71.2204ZM195.193 99.4786C176.29 112.793 179.531 145.181 200.239 155.186C219.924 167.084 248.648 152.241 249.678 129.165C254.561 112.743 244.02 94.3464 227.603 89.8992C216.101 86.9383 203.166 90.5959 195.193 99.4786ZM182.06 154.242C177.839 154.671 176.871 160.125 179.791 162.823C185.534 169.093 194.918 172.998 203.372 170.827C207.059 169.948 207.19 164.974 204.855 162.59C199.383 156.181 190.336 153.154 182.06 154.242Z" fill="#A2243E"/>
</g>
<path id="Vector_6" d="M269.196 90.5415C289.109 100.887 308.903 111.45 328.89 121.652C308.996 122.279 289.063 121.741 269.157 121.919C269.165 116.222 269.08 110.529 269.204 104.831C284.028 108.539 298.578 113.28 313.329 117.259C298.625 109.991 283.966 102.629 269.173 95.5383C269.169 93.8701 269.184 92.2058 269.196 90.5415Z" fill="#D1953B"/>
<path id="Vector_7" d="M269.173 95.5383C283.967 102.629 298.625 109.991 313.33 117.259C298.578 113.281 284.029 108.539 269.204 104.831C269.142 101.735 269.119 98.6347 269.173 95.5383Z" fill="white"/>
<path id="Vector_8" d="M269.153 154.052C278.657 154.157 288.168 153.793 297.664 154.215C288.063 159.219 278.475 164.239 268.89 169.275C269.014 166.016 269.118 162.757 269.18 159.494C275.721 158.681 282.161 157.257 288.644 156.1C282.146 155.91 275.648 155.96 269.149 155.991C269.149 155.341 269.149 154.695 269.153 154.052Z" fill="#D1953B"/>
<path id="Vector_9" d="M269.149 155.991C275.648 155.96 282.146 155.91 288.645 156.099C282.162 157.257 275.721 158.681 269.18 159.494C269.146 158.313 269.161 157.16 269.149 155.991Z" fill="white"/>
<path id="Vector_10" d="M118.416 193.055C127.315 177.693 143.817 169.464 156.895 158.224C174.756 165.392 192.149 176.532 202.578 193.109C174.524 193.117 146.47 193.225 118.416 193.055Z" fill="white"/>
</g>
</g>
</g>
</g>
</g>
</svg>
