<svg width="81" height="55" viewBox="0 0 81 55" fill="none" xmlns="http://www.w3.org/2000/svg">
<g id="logo">
<g id="leg">
<path d="M32.0416 45.4396C32.7169 45.4194 33.3933 45.3818 34.0696 45.347C33.604 46.5917 32.5394 47.5999 32.1511 48.7787C32.8541 50.6824 31.8861 52.6925 30.3595 53.8776C29.9997 53.4248 29.6795 52.9427 29.3455 52.4716C30.0927 51.7484 30.7975 50.8428 30.6328 49.7273C29.4081 50.3753 28.1907 51.1214 26.8096 51.3799C26.6347 50.8474 26.4848 50.3057 26.3983 49.7521C28.7152 49.0692 31.0248 47.7218 32.0416 45.4396Z" fill="#D1953B"/>
<path d="M23.2928 45.2301C23.9863 45.2379 24.6814 45.2277 25.3764 45.2205C24.8461 46.4773 23.7116 47.4664 23.2633 48.6588C23.9034 50.6406 22.8254 52.6611 21.2097 53.8123C20.86 53.3328 20.5521 52.825 20.2296 52.3278C21.0264 51.6176 21.7877 50.7186 21.6661 49.5678C20.3827 50.1809 19.1027 50.8948 17.6754 51.1018C17.5187 50.5484 17.3879 49.9866 17.3228 49.4152C19.7277 48.8124 22.1533 47.5278 23.2928 45.2301Z" fill="#D1953B"/>
</g>
<g id="Logo">
<g id="eye">
<path d="M46.2564 22.1591C49.243 20.152 53.7622 21.6725 54.9069 25.0707C55.8471 27.4184 54.9235 30.4152 52.7565 31.7385C49.8896 32.0556 46.9694 30.3135 45.9838 27.6105C45.2944 25.8605 45.5906 23.929 46.2407 22.2182L46.2564 22.1591ZM49.1897 28.7522C50.3763 30.6437 53.6993 29.1397 52.9479 26.9849C52.6875 27.9597 51.1479 27.9719 50.9635 26.971C50.7355 26.3089 51.3707 25.9205 51.8408 25.6164C49.9298 24.6832 47.9149 27.0718 49.1897 28.7522Z" fill="white"/>
<path d="M44.6347 30.3387C42.7097 27.8112 43.525 23.8543 46.2407 22.2182C45.5906 23.929 45.2944 25.8605 45.9838 27.6105C46.9694 30.3135 49.8896 32.0556 52.7565 31.7385C50.3169 33.7256 46.3097 32.9593 44.6347 30.3387Z" fill="#D0D2D3"/>
<path d="M49.1897 28.7522C47.9149 27.0718 49.9298 24.6832 51.8408 25.6164C51.3707 25.9205 50.7355 26.3089 50.9635 26.971C51.1479 27.9719 52.6875 27.9597 52.9479 26.9849C53.6993 29.1397 50.3763 30.6437 49.1897 28.7522Z" fill="black"/>
</g>
<path id="eye-dot" d="M41.0776 34.6257C42.9449 34.3815 44.9861 35.061 46.2207 36.4999C46.7476 37.0351 46.7179 38.1516 45.8861 38.3488C43.9786 38.8363 41.8614 37.9596 40.5656 36.552C39.9067 35.9464 40.1252 34.7221 41.0776 34.6257Z" fill="black"/>
<g id="Group 145">
<path id="Vector" d="M44.0407 22.332C45.8398 20.3379 48.7582 19.5168 51.3534 20.1815C55.0574 21.1798 57.4358 25.3096 56.334 28.9963C55.2304 32.8801 50.615 35.3738 46.7896 33.6639C42.2459 32.1025 40.7884 25.7788 44.0407 22.332ZM46.2566 22.1591L46.2409 22.2181C43.5251 23.8542 42.7099 27.8111 44.6348 30.3387C46.3099 32.9592 50.3171 33.7256 52.7567 31.7384C54.9237 30.4151 55.8473 27.4184 54.9071 25.0707C53.7624 21.6725 49.2432 20.1519 46.2566 22.1591Z" fill="black"/>
<g id="Group 144">
<path id="Vector_2" d="M45.1791 34.8376C40.507 32.5915 39.7756 25.3207 44.0406 22.3318C40.7884 25.7786 42.2458 32.1023 46.7895 33.6637C50.615 35.3737 55.2303 32.88 56.3339 28.9961C56.1015 34.1763 49.6206 37.5085 45.1791 34.8376Z" fill="#681526"/>
<path id="Vector_3" d="M16.8712 31.7131C18.8538 31.6375 20.8294 31.826 22.7981 32.0294C21.6613 32.4212 20.4616 33.0885 20.0509 34.2841C19.5135 35.7169 20.528 37.1471 20.0631 38.5764C19.7276 40.2229 20.4065 41.8816 21.4865 43.1076C19.1404 42.2995 17.2749 40.1916 16.9096 37.7309C16.8048 35.7282 16.8817 33.7185 16.8712 31.7131Z" fill="white"/>
<g id="Group 143">
<path id="Vector_4" d="M51.7073 0.548225C53.6916 0.0573091 55.8106 1.77074 55.9146 3.77785C56.057 5.08116 55.6376 6.36797 54.9691 7.47319C59.4062 8.99807 61.4972 14.0654 60.7256 18.4506C67.2537 22.0677 74.0404 25.3191 80.5929 28.9162C73.9714 28.9579 67.3498 28.9197 60.7291 28.9345C60.7256 30.3534 60.7248 31.7714 60.7291 33.1902C64.759 33.2111 68.7907 33.1546 72.8206 33.2163C68.6683 35.4754 64.3982 37.5842 60.2249 39.8189C59.1152 42.979 56.0867 45.3389 52.7488 45.6917C46.4471 45.7342 40.1436 45.6656 33.8418 45.7238C33.1996 45.7568 32.5574 45.7925 31.916 45.8116C29.8163 45.7786 27.7166 45.7872 25.6169 45.7933C25.4998 46.491 25.4159 47.194 25.3137 47.8943C24.9432 47.7883 24.5718 47.6779 24.2206 47.5172C23.6605 47.2574 23.1336 46.9307 22.6539 46.544C22.3419 45.9827 21.9391 45.471 21.2314 45.4397C17.4645 44.5439 14.6212 41.0093 14.5032 37.1767C14.4962 34.2503 14.5181 31.3239 14.498 28.3984C12.0653 30.4811 8.6567 32.2084 5.42369 31.0094C4.15408 30.3951 2.59087 29.2481 2.95611 27.6598C4.24145 25.9716 6.66359 26.0576 8.58592 25.6449C4.75524 24.7578 0.713978 21.4873 1.68912 17.1551C1.85514 15.5286 3.74689 15.4 4.9431 15.9378C8.55883 17.4549 11.5664 20.0667 14.4988 22.6004C14.5303 19.9998 14.4726 17.3984 14.5189 14.7978C14.9916 10.6759 18.5829 7.16821 22.7614 6.88843C31.2546 6.82413 39.7513 6.89364 48.2462 6.85454C46.6052 6.08906 44.9311 5.32097 43.5365 4.14886C42.9117 3.70747 42.8191 2.64657 43.609 2.34854C46.3204 0.89317 49.736 2.04443 51.7274 4.17927C51.3814 3.07405 50.5836 1.39538 51.7073 0.548225ZM16.8712 15.9882C16.8589 21.2301 16.8598 26.4721 16.8712 31.7132C16.8816 33.7185 16.8048 35.7282 16.9096 37.731C17.2749 40.1917 19.1404 42.2996 21.4865 43.1076C20.4065 41.8816 19.7276 40.223 20.0631 38.5764C20.528 37.1471 19.5135 35.7169 20.0509 34.2842C20.4616 33.0886 21.6613 32.4213 22.7981 32.0294C26.2294 31.0033 30.1405 31.2891 33.2049 29.1908C30.2812 32.0703 25.8039 31.9669 22.48 34.1599C21.6883 34.6769 21.5931 35.6318 21.7495 36.4807C23.9777 34.0122 27.4047 33.139 30.5983 32.7662C28.0373 33.9123 25.4002 35.0679 23.3485 37.0316C22.4433 37.956 21.5346 39.2229 21.94 40.594C23.567 37.413 26.904 35.6831 30.2453 34.8542C27.8905 36.4633 25.4273 38.1602 23.9279 40.6452C23.1065 41.8321 22.9885 43.96 24.266 44.6968C24.806 40.6374 28.3912 37.996 31.6312 35.9707C34.4849 34.1825 37.8499 31.9547 38.2335 28.3028C39.0452 31.0337 37.5371 33.8454 35.3998 35.5197C32.449 38.0429 28.7258 39.8902 26.7179 43.3387C33.0476 43.377 39.3773 43.3526 45.707 43.3509C48.1012 43.3361 50.4988 43.4152 52.8913 43.3127C55.7695 42.8009 58.141 40.2403 58.3673 37.3444C58.369 30.2274 58.3743 23.1104 58.3638 15.9934C58.5726 12.5266 55.5834 9.40297 52.1547 9.2066C42.55 9.21268 32.9462 9.21181 23.3416 9.2066C19.8167 9.23093 16.6746 12.4753 16.8712 15.9882ZM60.7379 20.3256C60.7352 20.6993 60.7317 21.0729 60.7326 21.4474C60.7204 22.1425 60.7256 22.8384 60.7396 23.5335C60.7117 24.8125 60.7309 26.0906 60.7291 27.3696C65.2204 27.3297 69.7178 27.4504 74.2064 27.3097C69.6968 25.0193 65.2309 22.6481 60.7379 20.3256ZM60.7282 34.5831C60.7274 34.7273 60.7274 34.8724 60.7274 35.0184C60.73 35.2808 60.7265 35.5397 60.7344 35.8047C60.7204 36.5372 60.6968 37.2688 60.6688 38.0004C62.8315 36.8699 64.9949 35.743 67.1611 34.6196C65.0185 34.5248 62.8725 34.6065 60.7282 34.5831Z" fill="black"/>
<g id="Vector_5">
<path d="M16.8712 15.9881C16.6746 12.4753 19.8167 9.23087 23.3415 9.20654C32.9462 9.21176 42.55 9.21263 52.1546 9.20654C55.5834 9.40291 58.5726 12.5265 58.3638 15.9934C56.9159 13.8542 54.4413 12.3423 51.7999 12.4327C42.3411 12.4127 32.8824 12.4336 23.4237 12.4223C20.7848 12.318 18.3321 13.8759 16.8712 15.9881Z" fill="#CF2044"/>
<path d="M16.8712 15.9881C18.3321 13.8759 20.7848 12.318 23.4237 12.4223C32.8824 12.4336 42.3411 12.4127 51.7999 12.4327C54.4413 12.3423 56.9159 13.8542 58.3638 15.9934C58.3742 23.1103 58.369 30.2273 58.3673 37.3443C58.1409 40.2403 55.7695 42.8009 52.8912 43.3126C50.4988 43.4152 48.1011 43.3361 45.707 43.3509C43.3539 39.6294 39.4297 37.1288 35.3998 35.5197C37.5371 33.8453 39.0452 31.0336 38.2335 28.3028C37.8499 31.9546 34.4849 34.1825 31.6312 35.9706C28.3912 37.996 24.806 40.6373 24.266 44.6967C22.9885 43.9599 23.1065 41.8321 23.9279 40.6452C25.4273 38.1602 27.8905 36.4633 30.2453 34.8541C26.904 35.683 23.567 37.4129 21.94 40.5939C21.5346 39.2228 22.4433 37.956 23.3485 37.0315C25.4002 35.0678 28.0373 33.9122 30.5983 32.7662C27.4046 33.1389 23.9777 34.0122 21.7495 36.4806C21.5931 35.6317 21.6883 34.6768 22.48 34.1599C25.8039 31.9668 30.2812 32.0702 33.2048 29.1907C30.1405 31.2891 26.2294 31.0032 22.798 32.0294C20.8294 31.8261 18.8538 31.6375 16.8712 31.7131C16.8598 26.472 16.8589 21.2301 16.8712 15.9881ZM44.0407 22.3318C39.7757 25.3208 40.5071 32.5915 45.1792 34.8376C49.6207 37.5085 56.1015 34.1764 56.334 28.9961C57.4358 25.3095 55.0574 21.1797 51.3534 20.1813C48.7582 19.5167 45.8398 20.3377 44.0407 22.3318ZM41.0776 34.6256C40.1252 34.722 39.9068 35.9463 40.5656 36.5519C41.8614 37.9595 43.9786 38.8362 45.8861 38.3487C46.7179 38.1515 46.7476 37.035 46.2208 36.4998C44.9861 35.0609 42.9449 34.3814 41.0776 34.6256Z" fill="#A2243E"/>
</g>
<path id="Vector_6" d="M60.7379 20.3257C65.2309 22.6482 69.6969 25.0194 74.2065 27.3097C69.7178 27.4505 65.2205 27.3297 60.7292 27.3697C60.7309 26.0907 60.7117 24.8126 60.7397 23.5336C64.0845 24.366 67.3673 25.4303 70.6956 26.3235C67.3778 24.6918 64.0706 23.0392 60.7327 21.4474C60.7318 21.0729 60.7353 20.6993 60.7379 20.3257Z" fill="#D1953B"/>
<path id="Vector_7" d="M60.7327 21.4473C64.0705 23.0391 67.3778 24.6917 70.6956 26.3234C67.3673 25.4302 64.0845 24.3658 60.7397 23.5334C60.7257 22.8383 60.7205 22.1424 60.7327 21.4473Z" fill="white"/>
<path id="Vector_8" d="M60.7281 34.583C62.8724 34.6065 65.0184 34.5248 67.1609 34.6195C64.9948 35.743 62.8313 36.8699 60.6687 38.0003C60.6967 37.2687 60.7203 36.5371 60.7342 35.8047C62.2101 35.6222 63.6632 35.3025 65.1259 35.0427C63.6597 35.0001 62.1935 35.0114 60.7272 35.0183C60.7272 34.8724 60.7272 34.7273 60.7281 34.583Z" fill="#D1953B"/>
<path id="Vector_9" d="M60.7273 35.0185C62.1935 35.0115 63.6597 35.0002 65.1259 35.0428C63.6632 35.3026 62.2101 35.6223 60.7343 35.8048C60.7264 35.5398 60.7299 35.2809 60.7273 35.0185Z" fill="white"/>
<path id="Vector_10" d="M26.7178 43.3388C28.7257 39.8902 32.4489 38.043 35.3997 35.5198C39.4296 37.1289 43.3538 39.6296 45.7069 43.351C39.3772 43.3527 33.0475 43.377 26.7178 43.3388Z" fill="white"/>
</g>
</g>
</g>
</g>
</g>
</svg>
