<svg width="24" height="24" viewBox="0 0 24 24" fill="none" xmlns="http://www.w3.org/2000/svg">
<path d="M12.865 20.4978C12.726 20.7368 12.506 20.8968 12.257 20.9628C12.008 21.0288 11.737 20.9998 11.498 20.8618C11.336 20.7678 11.215 20.6398 11.139 20.5048C10.865 20.0248 10.255 19.8578 9.77498 20.1318C9.29497 20.4058 9.12797 21.0158 9.40197 21.4958C9.65198 21.9348 10.025 22.3188 10.495 22.5918C11.211 23.0078 12.03 23.0928 12.771 22.8958C13.512 22.6988 14.18 22.2178 14.595 21.5018C14.872 21.0238 14.709 20.4118 14.232 20.1348C13.755 19.8578 13.142 20.0208 12.865 20.4978V20.4978ZM19.0001 7.97708C18.9961 6.05412 18.2161 4.31116 16.9571 3.04919C15.693 1.78121 13.943 0.994229 12.01 0.991229C10.562 0.989229 9.21097 1.42822 8.10996 2.1712C7.65295 2.4802 7.53195 3.10219 7.84096 3.56018C8.14996 4.01817 8.77197 4.13816 9.22997 3.82917C9.99398 3.31318 10.938 3.00019 11.96 2.99219C13.408 3.00319 14.644 3.56118 15.541 4.46216C16.443 5.36714 16.9991 6.61211 17.0001 7.98808C16.9581 9.64605 17.1731 11.464 17.6651 13.265C17.8111 13.798 18.3601 14.112 18.8931 13.966C19.4261 13.82 19.7401 13.271 19.5941 12.738C19.1511 11.113 18.9621 9.48805 19.0001 8.03008C19.0001 8.02508 19.0001 8.01908 19.0001 8.01408C19.0001 8.01108 19.0001 8.00808 19.0001 8.00508V7.97708ZM6.99595 8.41107L14.586 15.9999H5.14893C6.02094 14.5719 6.93195 12.188 6.99595 8.41107ZM0.292878 1.70721L5.14893 6.56311C5.04293 7.0561 4.99393 7.54709 4.99993 8.01308C4.99993 14.127 2.6069 16.0469 2.4369 16.1739C1.9839 16.4819 1.86389 17.0979 2.1679 17.5549C2.3599 17.8419 2.6739 17.9979 2.99991 17.9999H16.586L22.2931 23.7068C22.6841 24.0977 23.3171 24.0977 23.7071 23.7068C24.0971 23.3158 24.0981 22.6828 23.7071 22.2928L1.70689 0.293244C1.31589 -0.097748 0.682882 -0.097748 0.292878 0.293244C-0.0971259 0.684236 -0.0981259 1.31722 0.292878 1.70721V1.70721Z" fill="white"/>
</svg>
