<svg width="20" height="22" viewBox="0 0 20 22" fill="none" xmlns="http://www.w3.org/2000/svg">
<path d="M14.9999 7C14.9999 11.011 15.9469 13.52 16.8509 15H3.14893C4.05293 13.52 4.99993 11.011 4.99993 7C4.99993 5.619 5.55893 4.37 6.46393 3.464C7.36893 2.558 8.61893 2 9.99993 2C11.3809 2 12.6299 2.559 13.5359 3.464C14.4419 4.369 14.9999 5.619 14.9999 7V7ZM16.9999 7C16.9999 5.067 16.2149 3.316 14.9499 2.05C13.6849 0.784 11.9329 0 9.99993 0C8.06693 0 6.31593 0.785 5.04993 2.05C3.78393 3.315 2.99993 5.067 2.99993 7C2.99993 13.127 0.606927 15.047 0.436927 15.174C-0.0160734 15.482 -0.136073 16.098 0.167927 16.555C0.359927 16.842 0.673927 16.998 0.999927 17H18.9999C19.5519 17 19.9999 16.552 19.9999 16C19.9999 15.661 19.8319 15.362 19.5709 15.179C19.3949 15.049 16.9999 13.129 16.9999 7V7ZM10.8649 19.498C10.7259 19.737 10.5059 19.897 10.2569 19.963C10.0079 20.029 9.73693 20 9.49793 19.862C9.33593 19.768 9.21493 19.64 9.13893 19.505C8.86493 19.025 8.25493 18.858 7.77493 19.132C7.29493 19.406 7.12793 20.016 7.40193 20.496C7.65193 20.935 8.02493 21.319 8.49493 21.592C9.21093 22.008 10.0299 22.093 10.7709 21.896C11.5119 21.699 12.1799 21.218 12.5949 20.502C12.8719 20.024 12.7089 19.412 12.2319 19.135C11.7549 18.858 11.1419 19.021 10.8649 19.498V19.498Z" fill="white"/>
</svg>
