<svg width="17" height="16" viewBox="0 0 17 16" fill="none" xmlns="http://www.w3.org/2000/svg">
<path d="M6.51093 3.99992V3.33325C6.51093 3.14925 6.58304 2.98325 6.70127 2.86192C6.8195 2.74059 6.98126 2.66659 7.16056 2.66659H9.75904C9.93834 2.66659 10.1001 2.74059 10.2183 2.86192C10.3366 2.98325 10.4087 3.14925 10.4087 3.33325V3.99992H6.51093ZM6.51093 13.3333V5.33325H10.4087V13.3333H6.51093ZM5.21169 5.33325V13.3333H3.26283C3.08353 13.3333 2.92178 13.2593 2.80355 13.1379C2.68532 13.0166 2.61321 12.8506 2.61321 12.6666V5.99992C2.61321 5.81592 2.68532 5.64992 2.80355 5.52859C2.92178 5.40725 3.08353 5.33325 3.26283 5.33325H5.21169ZM11.7079 3.99992V3.33325C11.7079 2.78125 11.489 2.27992 11.1369 1.91925C10.7848 1.55859 10.2969 1.33325 9.75904 1.33325H7.16056C6.62267 1.33325 6.13415 1.55792 5.78271 1.91925C5.43126 2.28059 5.21169 2.78125 5.21169 3.33325V3.99992H3.26283C2.72494 3.99992 2.23643 4.22459 1.88498 4.58592C1.53354 4.94725 1.31396 5.44792 1.31396 5.99992V12.6666C1.31396 13.2186 1.53289 13.7199 1.88498 14.0806C2.23708 14.4413 2.72494 14.6666 3.26283 14.6666H13.6568C14.1947 14.6666 14.6832 14.4419 15.0346 14.0806C15.3861 13.7193 15.6056 13.2186 15.6056 12.6666V5.99992C15.6056 5.44792 15.3867 4.94659 15.0346 4.58592C14.6825 4.22525 14.1947 3.99992 13.6568 3.99992H11.7079ZM11.7079 13.3333V5.33325H13.6568C13.8361 5.33325 13.9978 5.40725 14.116 5.52859C14.2343 5.64992 14.3064 5.81592 14.3064 5.99992V12.6666C14.3064 12.8506 14.2343 13.0166 14.116 13.1379C13.9978 13.2593 13.8361 13.3333 13.6568 13.3333H11.7079Z" fill="#8DA0BA"/>
</svg>
