<svg width="17" height="16" viewBox="0 0 17 16" fill="none" xmlns="http://www.w3.org/2000/svg">
<path d="M7.6427 1.99994H3.09535C2.55746 1.99994 2.06895 2.2246 1.7175 2.58594C1.36606 2.94727 1.14648 3.44794 1.14648 3.99994V13.3333C1.14648 13.8853 1.36541 14.3866 1.7175 14.7473C2.0696 15.1079 2.55746 15.3333 3.09535 15.3333H12.19C12.7279 15.3333 13.2164 15.1086 13.5679 14.7473C13.9193 14.3859 14.1389 13.8853 14.1389 13.3333V8.6666C14.1389 8.2986 13.8479 7.99994 13.4893 7.99994C13.1307 7.99994 12.8397 8.2986 12.8397 8.6666V13.3333C12.8397 13.5173 12.7676 13.6833 12.6493 13.8046C12.5311 13.9259 12.3693 13.9999 12.19 13.9999H3.09535C2.91605 13.9999 2.7543 13.9259 2.63607 13.8046C2.51783 13.6833 2.44573 13.5173 2.44573 13.3333V3.99994C2.44573 3.81594 2.51783 3.64994 2.63607 3.5286C2.7543 3.40727 2.91605 3.33327 3.09535 3.33327H7.6427C8.00129 3.33327 8.29232 3.0346 8.29232 2.6666C8.29232 2.2986 8.00129 1.99994 7.6427 1.99994ZM12.0556 1.19527L5.88417 7.5286C5.80492 7.60927 5.7432 7.71527 5.71332 7.8386L5.0637 10.5053C5.03837 10.6053 5.03642 10.7173 5.0637 10.8286C5.15075 11.1859 5.50349 11.4033 5.85169 11.3139L8.45018 10.6473C8.55866 10.6199 8.66455 10.5613 8.75225 10.4719L14.9237 4.1386C15.3193 3.7326 15.5174 3.1986 15.5174 2.66727C15.5174 2.13594 15.3193 1.60194 14.9237 1.19594C14.528 0.789937 14.007 0.585938 13.4893 0.585938C12.9715 0.585938 12.4512 0.789271 12.0556 1.19527ZM12.9741 2.13794C13.1164 1.99194 13.3015 1.91927 13.4893 1.91927C13.677 1.91927 13.8622 1.99194 14.0044 2.13794C14.1467 2.28394 14.2175 2.47394 14.2175 2.6666C14.2175 2.85927 14.1467 3.04927 14.0044 3.19527L7.96036 9.39794L6.58706 9.7506L6.93071 8.34127L12.9741 2.13794Z" fill="#8DA0BA"/>
</svg>
