<svg width="17" height="16" viewBox="0 0 17 16" fill="none" xmlns="http://www.w3.org/2000/svg">
<path d="M11.7083 2.00008V3.33341H10.4091C10.0505 3.33341 9.72504 3.48341 9.49053 3.72408C9.25601 3.96475 9.10985 4.29875 9.10985 4.66675V6.66675C9.10985 7.03475 9.40088 7.33341 9.75947 7.33341H11.5258L11.201 8.66675H9.75947C9.40088 8.66675 9.10985 8.96541 9.10985 9.33341V14.0001H7.81061V9.33341C7.81061 8.96541 7.51958 8.66675 7.16099 8.66675H5.86174V7.33341H7.16099C7.51958 7.33341 7.81061 7.03475 7.81061 6.66675V4.66675C7.81061 3.93008 8.10099 3.26475 8.57196 2.78141C9.04294 2.29808 9.69126 2.00008 10.4091 2.00008H11.7083ZM12.358 0.666748H10.4091C9.33267 0.666748 8.35759 1.11541 7.65275 1.83808C6.94791 2.56075 6.51136 3.56208 6.51136 4.66675V6.00008H5.21212C4.85353 6.00008 4.5625 6.29875 4.5625 6.66675V9.33341C4.5625 9.70141 4.85353 10.0001 5.21212 10.0001H6.51136V14.6667C6.51136 15.0347 6.80239 15.3334 7.16099 15.3334H9.75947C10.1181 15.3334 10.4091 15.0347 10.4091 14.6667V10.0001H11.7083C12.0111 10.0001 12.2657 9.78741 12.3385 9.49541L12.9881 6.82875C13.0751 6.47141 12.8634 6.10941 12.5152 6.02008C12.4612 6.00608 12.4067 5.99941 12.358 6.00008H10.4091V4.66675H12.358C12.7165 4.66675 13.0076 4.36808 13.0076 4.00008V1.33341C13.0076 0.965415 12.7165 0.666748 12.358 0.666748Z" fill="#8DA0BA"/>
</svg>
