<svg width="13" height="22" viewBox="0 0 13 22" fill="none" xmlns="http://www.w3.org/2000/svg">
<path d="M11 2V4H9C8.448 4 7.947 4.225 7.586 4.586C7.225 4.947 7 5.448 7 6V9C7 9.552 7.448 10 8 10H10.719L10.219 12H8C7.448 12 7 12.448 7 13V20H5V13C5 12.448 4.552 12 4 12H2V10H4C4.552 10 5 9.552 5 9V6C5 4.895 5.447 3.897 6.172 3.172C6.897 2.447 7.895 2 9 2H11ZM12 0H9C7.343 0 5.842 0.673 4.757 1.757C3.672 2.841 3 4.343 3 6V8H1C0.448 8 0 8.448 0 9V13C0 13.552 0.448 14 1 14H3V21C3 21.552 3.448 22 4 22H8C8.552 22 9 21.552 9 21V14H11C11.466 14 11.858 13.681 11.97 13.243L12.97 9.243C13.104 8.707 12.778 8.164 12.242 8.03C12.159 8.009 12.075 7.999 12 8H9V6H12C12.552 6 13 5.552 13 5V1C13 0.448 12.552 0 12 0V0Z" fill="white"/>
</svg>
