<svg width="17" height="16" viewBox="0 0 17 16" fill="none" xmlns="http://www.w3.org/2000/svg">
<path d="M11.6761 8.66659C11.5371 10.4599 10.9602 12.2353 9.93899 13.8066C10.9589 13.5339 11.8703 12.9853 12.594 12.2426C13.5087 11.3039 14.1212 10.0573 14.2707 8.66659H11.6761ZM9.94028 2.19392C10.9037 3.67792 11.5234 5.42925 11.6741 7.33325H14.2707C14.1212 5.94259 13.5087 4.69592 12.594 3.75725C11.871 3.01525 10.9595 2.46659 9.94028 2.19392ZM5.24352 7.33325C5.38254 5.53992 5.95941 3.76459 6.98061 2.19325C5.9607 2.46592 5.04929 3.01459 4.32561 3.75725C3.41094 4.69592 2.79835 5.94259 2.64894 7.33325H5.24352ZM6.97931 13.8059C6.01657 12.3219 5.39683 10.5706 5.24547 8.66659H2.64894C2.79835 10.0573 3.41094 11.3039 4.32561 12.2426C5.04929 12.9846 5.96006 13.5333 6.97931 13.8059ZM8.4624 15.3333C6.48495 15.3326 4.69849 14.5113 3.40704 13.1853C2.1143 11.8593 1.31396 10.0246 1.31396 7.99992C1.31396 5.97525 2.1143 4.14059 3.40704 2.81459C4.69849 1.48859 6.48495 0.667253 8.4572 0.666586C10.4346 0.667253 12.2205 1.48859 13.5126 2.81459C14.8053 4.14059 15.6056 5.97525 15.6056 7.99992C15.6056 10.0246 14.8053 11.8593 13.5126 13.1853C12.2211 14.5113 10.4346 15.3326 8.4624 15.3333ZM10.3736 7.33325C10.2099 5.47459 9.51868 3.75992 8.46045 2.36592C7.33725 3.84659 6.70257 5.57792 6.54731 7.33325H10.3736ZM8.45915 13.6339C9.58234 12.1533 10.217 10.4219 10.3723 8.66659H6.54601C6.70972 10.5253 7.40092 12.2399 8.45915 13.6339Z" fill="#8DA0BA"/>
</svg>
