<svg width="22" height="22" viewBox="0 0 22 22" fill="none" xmlns="http://www.w3.org/2000/svg">
<path d="M6 0C4.343 0 2.842 0.673 1.757 1.757C0.672 2.841 0 4.343 0 6V16C0 17.657 0.673 19.158 1.757 20.243C2.841 21.328 4.343 22 6 22H16C17.657 22 19.158 21.327 20.243 20.243C21.328 19.159 22 17.657 22 16V6C22 4.343 21.327 2.842 20.243 1.757C19.159 0.672 17.657 0 16 0H6ZM6 2H16C17.105 2 18.103 2.447 18.828 3.172C19.553 3.897 20 4.895 20 6V16C20 17.105 19.553 18.103 18.828 18.828C18.103 19.553 17.105 20 16 20H6C4.895 20 3.897 19.553 3.172 18.828C2.447 18.103 2 17.105 2 16V6C2 4.895 2.447 3.897 3.172 3.172C3.897 2.447 4.895 2 6 2V2ZM15.989 10.223C15.839 9.251 15.418 8.366 14.795 7.656C14.041 6.795 12.991 6.191 11.786 6.012C11.322 5.938 10.816 5.935 10.309 6.01C8.943 6.212 7.788 6.951 7.027 7.977C6.266 9.003 5.894 10.324 6.097 11.689C6.3 13.054 7.038 14.21 8.064 14.971C9.09 15.732 10.411 16.104 11.776 15.901C13.141 15.698 14.297 14.96 15.058 13.934C15.819 12.908 16.191 11.587 15.988 10.222L15.989 10.223ZM14.011 10.517C14.133 11.337 13.911 12.126 13.453 12.744C12.995 13.362 12.303 13.803 11.484 13.924C10.665 14.045 9.875 13.824 9.257 13.366C8.639 12.908 8.198 12.216 8.077 11.397C7.956 10.578 8.177 9.788 8.635 9.17C9.093 8.552 9.785 8.111 10.604 7.99C10.917 7.944 11.219 7.948 11.474 7.988C12.214 8.098 12.84 8.458 13.292 8.974C13.667 9.402 13.922 9.937 14.012 10.517H14.011ZM16.5 6.5C17.052 6.5 17.5 6.052 17.5 5.5C17.5 4.948 17.052 4.5 16.5 4.5C15.948 4.5 15.5 4.948 15.5 5.5C15.5 6.052 15.948 6.5 16.5 6.5Z" fill="white"/>
</svg>
