<svg width="24" height="24" viewBox="0 0 24 24" fill="none" xmlns="http://www.w3.org/2000/svg">
<path d="M22.0001 13V18C22.0001 18.276 21.8891 18.525 21.7071 18.707C21.5251 18.889 21.2761 19 21.0001 19H5.00005C4.72405 19 4.47505 18.889 4.29305 18.707C4.11105 18.525 4.00005 18.276 4.00005 18V13H8.46505L10.1681 15.555C10.3501 15.825 10.6541 16 11.0001 16H15.0001C15.3261 15.998 15.6401 15.842 15.8321 15.555L17.5351 13H22.0001ZM7.34405 5.558C7.41005 5.427 7.50405 5.312 7.61605 5.221C7.78805 5.082 8.00305 5 8.24005 5H17.7531C17.9031 5.001 18.0481 5.034 18.1791 5.094C18.3801 5.186 18.5491 5.343 18.6561 5.558L21.3811 11H17.0001C16.6541 11 16.3501 11.175 16.1681 11.445L14.4651 14H11.5351L9.83205 11.445C9.64005 11.158 9.32605 11.002 9.00005 11H4.61905L7.34405 5.558ZM5.55605 4.662L2.11505 11.534C2.08405 11.593 2.05905 11.655 2.04005 11.721C2.01205 11.815 1.99905 11.909 2.00005 12V18C2.00005 18.828 2.33705 19.58 2.87905 20.121C3.42105 20.662 4.17205 21 5.00005 21H21.0001C21.8281 21 22.5801 20.663 23.1211 20.121C23.6621 19.579 24.0001 18.828 24.0001 18V12C24.0001 11.849 23.9671 11.707 23.9091 11.583C23.9041 11.573 23.8991 11.562 23.8941 11.552L23.8851 11.534L20.4441 4.662C20.1291 4.028 19.6151 3.551 19.0111 3.275C18.6231 3.098 18.1991 3.003 17.7671 3H8.24005C7.52905 3 6.87305 3.249 6.35705 3.667C6.02605 3.935 5.75205 4.273 5.55605 4.662V4.662Z" fill="white"/>
</svg>
