<svg width="17" height="16" viewBox="0 0 17 16" fill="none" xmlns="http://www.w3.org/2000/svg">
<path d="M5.53689 0.666748C4.46046 0.666748 3.48538 1.11541 2.78054 1.83808C2.07571 2.56075 1.63916 3.56208 1.63916 4.66675V11.3334C1.63916 12.4381 2.07636 13.4387 2.78054 14.1621C3.48473 14.8854 4.46046 15.3334 5.53689 15.3334H12.0331C13.1095 15.3334 14.0846 14.8847 14.7894 14.1621C15.4943 13.4394 15.9308 12.4381 15.9308 11.3334V4.66675C15.9308 3.56208 15.4936 2.56141 14.7894 1.83808C14.0853 1.11475 13.1095 0.666748 12.0331 0.666748H5.53689ZM5.53689 2.00008H12.0331C12.7509 2.00008 13.3993 2.29808 13.8702 2.78141C14.3412 3.26475 14.6316 3.93008 14.6316 4.66675V11.3334C14.6316 12.0701 14.3412 12.7354 13.8702 13.2187C13.3993 13.7021 12.7509 14.0001 12.0331 14.0001H5.53689C4.81906 14.0001 4.17073 13.7021 3.69976 13.2187C3.22878 12.7354 2.9384 12.0701 2.9384 11.3334V4.66675C2.9384 3.93008 3.22878 3.26475 3.69976 2.78141C4.17073 2.29808 4.81906 2.00008 5.53689 2.00008ZM12.026 7.48208C11.9285 6.83408 11.655 6.24408 11.2503 5.77075C10.7605 5.19675 10.0784 4.79408 9.2956 4.67475C8.99417 4.62541 8.66546 4.62341 8.3361 4.67341C7.44872 4.80808 6.69841 5.30075 6.20405 5.98475C5.70969 6.66875 5.46803 7.54941 5.5999 8.45941C5.73177 9.36941 6.21119 10.1401 6.87771 10.6474C7.54422 11.1547 8.40237 11.4027 9.2891 11.2674C10.1758 11.1321 10.9268 10.6401 11.4212 9.95608C11.9155 9.27208 12.1572 8.39141 12.0253 7.48141L12.026 7.48208ZM10.741 7.67808C10.8203 8.22475 10.676 8.75075 10.3785 9.16275C10.081 9.57475 9.63145 9.86875 9.09941 9.94941C8.56737 10.0301 8.05417 9.88275 7.6527 9.57741C7.25124 9.27208 6.96475 8.81075 6.88615 8.26475C6.80755 7.71875 6.95111 7.19208 7.24864 6.78008C7.54617 6.36808 7.9957 6.07408 8.52774 5.99341C8.73107 5.96275 8.92726 5.96541 9.09291 5.99208C9.57363 6.06541 9.9803 6.30541 10.2739 6.64941C10.5175 6.93475 10.6832 7.29141 10.7417 7.67808H10.741ZM12.3579 5.00008C12.7165 5.00008 13.0075 4.70141 13.0075 4.33341C13.0075 3.96541 12.7165 3.66675 12.3579 3.66675C11.9993 3.66675 11.7083 3.96541 11.7083 4.33341C11.7083 4.70141 11.9993 5.00008 12.3579 5.00008Z" fill="#8DA0BA"/>
</svg>
