<svg width="15" height="16" viewBox="0 0 15 16" fill="none" xmlns="http://www.w3.org/2000/svg">
<g clip-path="url(#clip0_93_2971)">
<path d="M12.5929 15.1378L11.3734 13.8044C11.1349 13.5438 11.1349 13.1218 11.3734 12.8618C11.6118 12.6018 11.9978 12.6011 12.2356 12.8618L13.4552 14.1951C13.6936 14.4558 13.6936 14.8778 13.4552 15.1378C13.2167 15.3978 12.8307 15.3984 12.5929 15.1378ZM7.59214 8.73442C6.8226 9.56376 5.81891 9.98042 4.81582 9.98309C3.80847 9.98509 2.79868 9.56976 2.02426 8.73442C1.24558 7.89442 0.851659 6.78709 0.844342 5.67909C0.837024 4.57109 1.21875 3.45776 1.98707 2.60642C2.80417 1.72442 3.82189 1.30909 4.83534 1.31642C5.84879 1.32376 6.86163 1.75442 7.62995 2.60642C8.39827 3.45842 8.77877 4.57109 8.77206 5.67909C8.76536 6.78709 8.37144 7.89442 7.59214 8.73442ZM6.73601 7.78509C7.27567 7.20309 7.54824 6.43842 7.55251 5.66976C7.55678 4.90109 7.29396 4.13242 6.76162 3.54242C6.22929 2.95242 5.52987 2.65442 4.8268 2.64976C4.12373 2.64509 3.42065 2.93242 2.881 3.51442C2.32244 4.13242 2.05963 4.90109 2.06451 5.66976C2.06938 6.43842 2.34196 7.20309 2.881 7.78509C3.41699 8.36309 4.11458 8.65109 4.81338 8.64909C5.50914 8.64776 6.20307 8.35909 6.7354 7.78509H6.73601ZM7.59519 7.78842L10.1014 10.5284C10.3398 10.7891 10.3398 11.2111 10.1014 11.4711C9.86296 11.7311 9.47697 11.7318 9.23915 11.4711L6.73297 8.73109C6.49454 8.47042 6.49454 8.04842 6.73297 7.78842C6.97139 7.52842 7.35738 7.52776 7.59519 7.78842ZM9.23915 10.5284L11.0685 8.52842C11.3069 8.26776 11.6929 8.26776 11.9307 8.52842L14.0649 10.8618C14.3034 11.1224 14.3034 11.5444 14.0649 11.8044L12.2356 13.8044C11.9972 14.0651 11.6112 14.0651 11.3734 13.8044C11.1356 13.5438 11.1349 13.1218 11.3734 12.8618L12.7716 11.3331L11.4996 9.94242L10.1014 11.4711C9.86296 11.7318 9.47697 11.7318 9.23915 11.4711C9.00134 11.2104 9.00073 10.7884 9.23915 10.5284ZM10.1014 10.5284L12.2356 12.8618C12.474 13.1224 12.474 13.5444 12.2356 13.8044C11.9972 14.0644 11.6112 14.0651 11.3734 13.8044L9.23915 11.4711C9.00073 11.2104 9.00073 10.7884 9.23915 10.5284C9.47758 10.2684 9.86356 10.2678 10.1014 10.5284Z" fill="#8DA0BA"/>
</g>
<defs>
<clipPath id="clip0_93_2971">
<rect width="14.6347" height="16" fill="white" transform="matrix(1 0 0 -1 0.21875 16)"/>
</clipPath>
</defs>
</svg>
