<svg width="17" height="16" viewBox="0 0 17 16" fill="none" xmlns="http://www.w3.org/2000/svg">
<path d="M2.42034 5.28067L7.89469 9.21333C8.11557 9.37 8.41114 9.37733 8.63981 9.21333L14.1135 5.28067V12C14.1135 12.1813 14.0421 12.3473 13.9219 12.47C13.8017 12.5927 13.6406 12.6667 13.4639 12.6667H3.06996C2.89326 12.6667 2.7315 12.5933 2.61197 12.47C2.49244 12.3467 2.42034 12.1813 2.42034 12V5.28067ZM1.12109 3.98867C1.12109 3.99533 1.12109 4.002 1.12109 4.00867V12C1.12109 12.552 1.34196 13.0527 1.69276 13.4133C2.04356 13.774 2.53207 14 3.06996 14H13.4639C14.0018 14 14.4896 13.7733 14.8411 13.4133C15.1925 13.0533 15.4128 12.552 15.4128 12V4.008C15.4128 4.00133 15.4128 3.99467 15.4128 3.988C15.4095 3.44067 15.1899 2.94467 14.8411 2.58667C14.4896 2.22667 14.0018 2 13.4639 2H3.06996C2.53207 2 2.04421 2.22667 1.69276 2.58667C1.34391 2.94467 1.12434 3.44067 1.12109 3.98867ZM14.0447 3.70267L8.26693 7.85267L2.4892 3.70267C2.52038 3.63867 2.56195 3.58067 2.61132 3.53C2.7315 3.40667 2.89326 3.33333 3.06996 3.33333H13.4639C13.6406 3.33333 13.8023 3.40667 13.9219 3.53C13.9713 3.58067 14.0128 3.63933 14.044 3.70267H14.0447Z" fill="#8DA0BA"/>
</svg>
