<svg width="22" height="24" viewBox="0 0 22 24" fill="none" xmlns="http://www.w3.org/2000/svg">
<path d="M2.83333 7.921L10.5581 13.82C10.8697 14.055 11.2868 14.066 11.6095 13.82L19.3333 7.921V18C19.3333 18.272 19.2325 18.521 19.0629 18.705C18.8933 18.889 18.666 19 18.4167 19H3.75C3.50067 19 3.27242 18.89 3.10375 18.705C2.93508 18.52 2.83333 18.272 2.83333 18V7.921ZM1 5.983C1 5.993 1 6.003 1 6.013V18C1 18.828 1.31167 19.579 1.80667 20.12C2.30167 20.661 2.991 21 3.75 21H18.4167C19.1757 21 19.8641 20.66 20.36 20.12C20.8559 19.58 21.1667 18.828 21.1667 18V6.012C21.1667 6.002 21.1667 5.992 21.1667 5.982C21.1621 5.161 20.8522 4.417 20.36 3.88C19.8641 3.34 19.1757 3 18.4167 3H3.75C2.991 3 2.30258 3.34 1.80667 3.88C1.31442 4.417 1.00458 5.161 1 5.983V5.983ZM19.2362 5.554L11.0833 11.779L2.9305 5.554C2.9745 5.458 3.03317 5.371 3.10283 5.295C3.27242 5.11 3.50067 5 3.75 5H18.4167C18.666 5 18.8942 5.11 19.0629 5.295C19.1326 5.371 19.1912 5.459 19.2352 5.554H19.2362Z" fill="white"/>
</svg>
