<svg width="17" height="16" viewBox="0 0 17 16" fill="none" xmlns="http://www.w3.org/2000/svg">
<path d="M14.9563 6.66667C14.9563 4.826 14.2287 3.158 13.0535 1.95267C11.8784 0.747333 10.2537 0 8.46008 0C6.66647 0 5.04112 0.746667 3.86661 1.95267C2.69209 3.15867 1.96387 4.826 1.96387 6.66667C1.96387 7.046 1.9983 7.41867 2.06131 7.784C2.23931 8.816 2.64532 9.78667 3.15397 10.664C4.92874 13.7247 8.09954 15.888 8.09954 15.888C8.31456 16.0327 8.5965 16.0407 8.81997 15.888C8.81997 15.888 11.9914 13.7247 13.7655 10.664C14.2742 9.78667 14.6802 8.816 14.8582 7.784C14.9219 7.41867 14.9563 7.046 14.9563 6.66667ZM13.657 6.66667C13.657 6.96267 13.6304 7.258 13.5797 7.552C13.4362 8.38533 13.101 9.204 12.6495 9.98267C11.4074 12.1253 9.37799 13.814 8.51205 14.476C7.60388 13.8653 5.53159 12.158 4.27002 9.98267C3.81854 9.204 3.48333 8.38533 3.33976 7.552C3.28974 7.258 3.26311 6.96267 3.26311 6.66667C3.26311 5.194 3.84387 3.86133 4.78517 2.89533C5.72647 1.92933 7.02507 1.33333 8.46008 1.33333C9.89509 1.33333 11.1937 1.92933 12.135 2.89533C13.0763 3.86133 13.657 5.194 13.657 6.66667ZM11.0586 6.66667C11.0586 5.93067 10.7669 5.26267 10.2972 4.78133C9.82753 4.3 9.17726 4 8.46008 4C7.7429 4 7.09198 4.29933 6.62295 4.78133C6.15392 5.26333 5.86159 5.93067 5.86159 6.66667C5.86159 7.40267 6.15327 8.07067 6.62295 8.552C7.09263 9.03333 7.7429 9.33333 8.46008 9.33333C9.17726 9.33333 9.82818 9.034 10.2972 8.552C10.7662 8.07 11.0586 7.40267 11.0586 6.66667ZM9.75932 6.66667C9.75932 7.03533 9.61446 7.36733 9.37864 7.60933C9.14283 7.85133 8.81932 8 8.46008 8C8.10084 8 7.77733 7.85133 7.54151 7.60933C7.3057 7.36733 7.16084 7.03533 7.16084 6.66667C7.16084 6.298 7.3057 5.966 7.54151 5.724C7.77733 5.482 8.10084 5.33333 8.46008 5.33333C8.81932 5.33333 9.14283 5.482 9.37864 5.724C9.61446 5.966 9.75932 6.298 9.75932 6.66667Z" fill="#8DA0BA"/>
</svg>
