<svg width="17" height="16" viewBox="0 0 17 16" fill="none" xmlns="http://www.w3.org/2000/svg">
<path d="M15.6058 11.2799C15.6162 10.8039 15.4525 10.3439 15.1686 9.98461C14.8698 9.60728 14.4352 9.33994 13.9181 9.26461C13.3984 9.19928 12.817 9.05528 12.2382 8.83394C11.9569 8.72794 11.658 8.68861 11.3651 8.71794C10.9344 8.76061 10.516 8.95061 10.1834 9.28794L9.71567 9.76794C8.56584 9.02328 7.53295 7.98994 6.73846 6.70861L7.21008 6.22461C7.41926 6.00461 7.57582 5.74061 7.66937 5.45394C7.80709 5.03261 7.80839 4.56328 7.64403 4.11328C7.45629 3.61128 7.30753 3.01728 7.22568 2.38328C7.15811 1.90728 6.92945 1.48661 6.60009 1.18061C6.24994 0.85661 5.78417 0.661277 5.28331 0.66661H3.33704C3.27988 0.66661 3.21881 0.669277 3.1597 0.67461C2.62441 0.72461 2.15798 0.993277 1.83902 1.38528C1.52005 1.77728 1.3466 2.29661 1.39532 2.85128C1.59021 4.90194 2.28206 7.01328 3.48451 8.91928C4.46024 10.5279 5.85432 12.0013 7.57582 13.1233C9.24405 14.2546 11.2683 15.0313 13.4783 15.2773C13.538 15.2833 13.6024 15.2859 13.6654 15.2859C14.2033 15.2839 14.6905 15.0573 15.0413 14.6946C15.3921 14.3319 15.6084 13.8299 15.6064 13.2806L15.6058 11.2799ZM14.3065 11.2799V13.2799C14.3072 13.4666 14.2357 13.6333 14.1182 13.7546C14.0006 13.8759 13.8395 13.9513 13.6595 13.9519C11.6139 13.7279 9.78713 13.0246 8.2917 12.0106C6.71442 10.9819 5.46 9.65261 4.58756 8.21461C3.48516 6.46794 2.86282 4.56061 2.68807 2.72261C2.67248 2.54394 2.72965 2.37194 2.83683 2.23994C2.94402 2.10794 3.09863 2.01994 3.27728 2.00328L5.28331 1.99994C5.45935 1.99794 5.61267 2.06261 5.7296 2.17061C5.84003 2.27328 5.91669 2.41461 5.93942 2.57594C6.03167 3.29061 6.20447 3.98728 6.43119 4.59261C6.48381 4.73661 6.48316 4.89061 6.43768 5.03128C6.40585 5.12794 6.35258 5.21861 6.28048 5.29461L5.46065 6.13528C5.25018 6.35128 5.21445 6.67794 5.35542 6.93594C6.38442 8.79261 7.84931 10.2406 9.50065 11.1879C9.75855 11.3359 10.0736 11.2839 10.2769 11.0773L11.102 10.2306C11.2098 10.1213 11.3469 10.0593 11.4904 10.0446C11.5892 10.0346 11.6918 10.0479 11.7886 10.0846C12.4525 10.3386 13.1333 10.5086 13.7596 10.5873C13.9161 10.6099 14.0597 10.6979 14.1591 10.8239C14.2546 10.9446 14.3091 11.0986 14.3059 11.2786L14.3065 11.2799Z" fill="#8DA0BA"/>
</svg>
