<svg width="22" height="24" viewBox="0 0 22 24" fill="none" xmlns="http://www.w3.org/2000/svg">
<path d="M21.0635 16.9199C21.0782 16.2059 20.8472 15.5159 20.4466 14.9769C20.025 14.4109 19.4117 14.0099 18.682 13.8969C17.9487 13.7989 17.1283 13.5829 16.3115 13.2509C15.9146 13.0919 15.493 13.0329 15.0795 13.0769C14.4718 13.1409 13.8815 13.4259 13.4121 13.9319L12.7521 14.6519C11.1296 13.5349 9.67212 11.9849 8.55104 10.0629L9.21654 9.33692C9.51171 9.00692 9.73262 8.61092 9.86462 8.18092C10.059 7.54892 10.0608 6.84492 9.82887 6.16992C9.56396 5.41692 9.35404 4.52592 9.23854 3.57492C9.14321 2.86092 8.82054 2.22992 8.35579 1.77092C7.86171 1.28492 7.20445 0.991916 6.4977 0.999916H3.75137C3.6707 0.999916 3.58454 1.00392 3.50112 1.01192C2.74579 1.08692 2.08762 1.48992 1.63754 2.07792C1.18745 2.66592 0.942704 3.44492 1.01145 4.27692C1.28645 7.35292 2.2627 10.5199 3.95945 13.3789C5.33629 15.7919 7.30346 18.0019 9.73262 19.6849C12.0866 21.3819 14.943 22.5469 18.0615 22.9159C18.1458 22.9249 18.2365 22.9289 18.3255 22.9289C19.0845 22.9259 19.772 22.5859 20.267 22.0419C20.762 21.4979 21.0672 20.7449 21.0645 19.9209L21.0635 16.9199ZM19.2302 16.9199V19.9199C19.2311 20.1999 19.1303 20.4499 18.9644 20.6319C18.7985 20.8139 18.5711 20.9269 18.3172 20.9279C15.4306 20.5919 12.853 19.5369 10.7428 18.0159C8.51712 16.4729 6.74704 14.4789 5.51595 12.3219C3.96037 9.70191 3.0822 6.84092 2.83562 4.08392C2.81362 3.81592 2.89429 3.55792 3.04554 3.35992C3.19679 3.16192 3.41495 3.02992 3.66704 3.00492L6.4977 2.99992C6.74612 2.99692 6.96245 3.09392 7.12745 3.25592C7.28329 3.40992 7.39145 3.62192 7.42354 3.86392C7.5537 4.93592 7.79754 5.98092 8.11745 6.88892C8.1917 7.10492 8.19079 7.33592 8.12662 7.54692C8.0817 7.69192 8.00654 7.82792 7.90479 7.94192L6.74795 9.20292C6.45095 9.52692 6.40054 10.0169 6.59945 10.4039C8.05146 13.1889 10.1185 15.3609 12.4487 16.7819C12.8126 17.0039 13.2572 16.9259 13.5441 16.6159L14.7083 15.3459C14.8605 15.1819 15.0539 15.0889 15.2565 15.0669C15.3958 15.0519 15.5406 15.0719 15.6772 15.1269C16.614 15.5079 17.5747 15.7629 18.4584 15.8809C18.6793 15.9149 18.8819 16.0469 19.0221 16.2359C19.1569 16.4169 19.2339 16.6479 19.2293 16.9179L19.2302 16.9199Z" fill="white"/>
</svg>
