<svg width="16" height="16" viewBox="0 0 16 16" fill="none" xmlns="http://www.w3.org/2000/svg">
<path d="M10.6942 10.5706C10.6715 10.5879 10.6495 10.6073 10.6282 10.6286C10.6068 10.6499 10.5882 10.6713 10.5702 10.6946C9.7315 11.5033 8.59083 11.9999 7.3335 11.9999C6.04483 11.9999 4.87883 11.4786 4.0335 10.6333C3.18816 9.78792 2.66683 8.62192 2.66683 7.33325C2.66683 6.04459 3.18816 4.87859 4.0335 4.03325C4.87883 3.18792 6.04483 2.66659 7.3335 2.66659C8.62216 2.66659 9.78816 3.18792 10.6335 4.03325C11.4788 4.87859 12.0002 6.04459 12.0002 7.33325C12.0002 8.59059 11.5035 9.73125 10.6942 10.5706ZM14.4715 13.5286L12.0215 11.0786C12.8422 10.0519 13.3335 8.74992 13.3335 7.33325C13.3335 5.67659 12.6615 4.17592 11.5762 3.09059C10.4908 2.00525 8.99016 1.33325 7.3335 1.33325C5.67683 1.33325 4.17616 2.00525 3.09083 3.09059C2.0055 4.17592 1.3335 5.67659 1.3335 7.33325C1.3335 8.98992 2.0055 10.4906 3.09083 11.5759C4.17616 12.6613 5.67683 13.3333 7.3335 13.3333C8.75016 13.3333 10.0522 12.8419 11.0788 12.0213L13.5288 14.4713C13.7895 14.7319 14.2115 14.7319 14.4715 14.4713C14.7315 14.2106 14.7322 13.7886 14.4715 13.5286Z" fill="white"/>
</svg>
