<svg width="14" height="14" viewBox="0 0 14 14" fill="none" xmlns="http://www.w3.org/2000/svg">
<path d="M12.6296 1.24773C12.6533 1.16468 12.6571 1.07503 12.6379 0.985927C12.6247 0.923777 12.6005 0.862727 12.5658 0.807177C12.5306 0.751077 12.4861 0.702677 12.4349 0.663077C12.3706 0.613577 12.298 0.580577 12.2226 0.563527C12.1473 0.546477 12.0675 0.544827 11.9883 0.561327C11.9652 0.566277 11.9416 0.572877 11.919 0.580577L11.9075 0.584427L0.91847 4.43058C0.77987 4.47898 0.66162 4.58238 0.59727 4.72648C0.47407 5.00423 0.59892 5.32928 0.87667 5.45248L5.63362 7.56668L7.74782 12.3236C7.80722 12.4573 7.91997 12.5673 8.06847 12.6195C8.35502 12.7196 8.66907 12.5689 8.76917 12.2818L12.6153 1.29338C12.6208 1.27853 12.6258 1.26368 12.6302 1.24828L12.6296 1.24773ZM5.92842 6.49363L2.59102 5.01083L10.0067 2.41483L5.92842 6.49363ZM10.7849 3.19308L8.18892 10.6087L6.70612 7.27133L10.7849 3.19308Z" fill="white"/>
</svg>
