<svg width="22" height="22" viewBox="0 0 22 22" fill="none" xmlns="http://www.w3.org/2000/svg">
<path d="M21.0832 10.9998C21.0832 8.21592 19.9538 5.69325 18.1297 3.87C16.3055 2.04675 13.7838 0.916504 10.9998 0.916504C8.21592 0.916504 5.69325 2.04584 3.87 3.87C2.04675 5.69417 0.916504 8.21592 0.916504 10.9998C0.916504 13.7838 2.04584 16.3064 3.87 18.1297C5.69417 19.9529 8.21592 21.0832 10.9998 21.0832C13.7838 21.0832 16.3064 19.9538 18.1297 18.1297C19.9529 16.3055 21.0832 13.7838 21.0832 10.9998ZM19.2498 10.9998C19.2498 13.2787 18.3277 15.3393 16.8335 16.8335C15.3393 18.3277 13.2787 19.2498 10.9998 19.2498C8.721 19.2498 6.66034 18.3277 5.16617 16.8335C3.672 15.3393 2.74984 13.2787 2.74984 10.9998C2.74984 8.721 3.672 6.66034 5.16617 5.16617C6.66034 3.672 8.721 2.74984 10.9998 2.74984C13.2787 2.74984 15.3393 3.672 16.8335 5.16617C18.3277 6.66034 19.2498 8.721 19.2498 10.9998ZM6.59984 13.3832C6.59984 13.3832 6.71992 13.5418 6.90325 13.7343C7.03617 13.8745 7.21309 14.0468 7.43217 14.2293C7.74109 14.4868 8.13984 14.7701 8.62109 15.0112C9.26734 15.3338 10.0685 15.5832 10.9998 15.5832C11.9312 15.5832 12.7323 15.3338 13.3786 15.0112C13.8598 14.7701 14.2586 14.4868 14.5675 14.2293C14.7866 14.0468 14.9635 13.8745 15.0964 13.7343C15.2798 13.5418 15.3998 13.3832 15.3998 13.3832C15.7033 12.978 15.6217 12.4033 15.2165 12.0998C14.8113 11.7964 14.2366 11.878 13.9332 12.2832C13.8956 12.329 13.7673 12.472 13.7673 12.472C13.6756 12.5683 13.55 12.6911 13.3933 12.8222C13.1705 13.0083 12.89 13.2063 12.5591 13.3722C12.1191 13.5913 11.5966 13.7498 10.9998 13.7498C10.4031 13.7498 9.88059 13.5913 9.44059 13.3713C9.11059 13.2063 8.82917 13.0073 8.60642 12.8213C8.44967 12.6902 8.32409 12.5673 8.23242 12.4711C8.10409 12.329 8.0665 12.2832 8.0665 12.2832C7.76309 11.878 7.18834 11.7964 6.78317 12.0998C6.378 12.4033 6.29642 12.978 6.59984 13.3832V13.3832ZM8.24984 9.1665C8.75584 9.1665 9.1665 8.75584 9.1665 8.24984C9.1665 7.74384 8.75584 7.33317 8.24984 7.33317C7.74384 7.33317 7.33317 7.74384 7.33317 8.24984C7.33317 8.75584 7.74384 9.1665 8.24984 9.1665ZM13.7498 9.1665C14.2558 9.1665 14.6665 8.75584 14.6665 8.24984C14.6665 7.74384 14.2558 7.33317 13.7498 7.33317C13.2438 7.33317 12.8332 7.74384 12.8332 8.24984C12.8332 8.75584 13.2438 9.1665 13.7498 9.1665Z" fill="#8DA0BA"/>
</svg>
