<svg width="17" height="16" viewBox="0 0 17 16" fill="none" xmlns="http://www.w3.org/2000/svg">
<g clip-path="url(#clip0_93_2034)">
<path d="M14.1979 3.5079C14.0771 3.66923 13.9439 3.82456 13.7978 3.9719C13.6464 4.12656 13.5723 4.3499 13.6172 4.57723C13.6412 4.69856 13.6561 4.84656 13.6568 4.9999C13.6568 8.5039 12.0789 10.9806 9.8825 12.2652C8.16295 13.2712 6.02505 13.5686 3.89169 13.0119C4.70047 12.7712 5.48976 12.3979 6.22578 11.8852C6.32127 11.8192 6.40313 11.7232 6.45445 11.6046C6.59996 11.2679 6.4525 10.8739 6.12444 10.7246C4.32239 9.90256 3.4415 8.77056 3.02639 7.66256C2.7555 6.9399 2.6717 6.19723 2.68859 5.51123C2.70223 4.97056 2.77824 4.47123 2.86919 4.05656C3.12514 4.28523 3.39083 4.52723 3.67147 4.74856C5.00384 5.7999 6.67532 6.40123 8.47542 6.35323C8.82816 6.34323 9.10945 6.04856 9.10945 5.68656V5.01256C9.10815 4.89323 9.11529 4.77456 9.13154 4.65723C9.20494 4.1199 9.45894 3.61123 9.88639 3.2299C10.3574 2.80923 10.9492 2.62456 11.5273 2.6659C12.1055 2.70723 12.6661 2.97456 13.076 3.4579C13.2397 3.64856 13.4976 3.73523 13.7471 3.66056C13.8972 3.6159 14.0479 3.56523 14.1986 3.50856L14.1979 3.5079ZM15.2315 1.45523C14.7508 1.80323 14.2421 2.07256 13.7458 2.25856C13.141 1.70123 12.3874 1.39056 11.6176 1.33523C10.7095 1.27056 9.77531 1.56123 9.03409 2.22323C8.36108 2.8239 7.96092 3.62856 7.84528 4.47123C7.82125 4.6479 7.80956 4.8259 7.81021 5.00456C6.56163 4.9099 5.41115 4.4379 4.46466 3.69123C3.9612 3.2939 3.51491 2.81856 3.14333 2.28056C2.93545 1.98056 2.53008 1.90923 2.23775 2.12256C2.13771 2.19523 2.06431 2.29123 2.02013 2.39523C2.02013 2.39523 1.93438 2.59456 1.83499 2.9019C1.76223 3.12656 1.67843 3.41856 1.60307 3.7619C1.49719 4.24323 1.40689 4.8299 1.3913 5.4759C1.37116 6.2939 1.46925 7.21723 1.81485 8.1399C2.25854 9.32323 3.09201 10.4586 4.50883 11.3552C3.48958 11.8392 2.40081 12.0479 1.34323 11.9999C0.984636 11.9839 0.681262 12.2686 0.665672 12.6366C0.654628 12.8959 0.7891 13.1272 0.998927 13.2486C4.18532 15.0652 7.77188 15.0339 10.5263 13.4226C13.1507 11.8886 14.956 8.9559 14.956 4.9999C14.9554 4.88856 14.9508 4.7799 14.9411 4.6739C15.5946 3.93056 16.0299 3.05456 16.2377 2.15323C16.3202 1.79523 16.1039 1.4359 15.7551 1.35123C15.5667 1.30523 15.3783 1.34923 15.2308 1.45523H15.2315Z" fill="#8DA0BA"/>
</g>
<defs>
<clipPath id="clip0_93_2034">
<rect width="15.5909" height="16" fill="white" transform="translate(0.664551)"/>
</clipPath>
</defs>
</svg>
