<svg width="24" height="24" viewBox="0 0 24 24" fill="none" xmlns="http://www.w3.org/2000/svg">
<g clip-path="url(#clip0_368_49)">
<path d="M20.833 5.26197C20.647 5.50397 20.4419 5.73697 20.2169 5.95797C19.9839 6.18997 19.8699 6.52497 19.9389 6.86597C19.9759 7.04797 19.999 7.26997 20 7.49997C20 12.756 17.571 16.471 14.1899 18.398C11.5429 19.907 8.25195 20.353 4.96795 19.518C6.21295 19.157 7.42795 18.597 8.56095 17.828C8.70795 17.729 8.83395 17.585 8.91295 17.407C9.13695 16.902 8.90995 16.311 8.40495 16.087C5.63095 14.854 4.27495 13.156 3.63595 11.494C3.21895 10.41 3.08995 9.29597 3.11595 8.26697C3.13695 7.45597 3.25395 6.70697 3.39395 6.08497C3.78795 6.42797 4.19695 6.79097 4.62895 7.12297C6.67995 8.69997 9.25295 9.60197 12.024 9.52997C12.567 9.51497 13 9.07297 13 8.52997V7.51897C12.998 7.33997 13.009 7.16197 13.034 6.98597C13.147 6.17997 13.538 5.41697 14.196 4.84497C14.921 4.21397 15.832 3.93697 16.722 3.99897C17.612 4.06097 18.475 4.46197 19.106 5.18697C19.358 5.47297 19.755 5.60297 20.139 5.49097C20.37 5.42397 20.602 5.34797 20.834 5.26297L20.833 5.26197ZM22.424 2.18297C21.684 2.70497 20.9009 3.10897 20.1369 3.38797C19.2059 2.55197 18.046 2.08597 16.861 2.00297C15.463 1.90597 14.025 2.34197 12.884 3.33497C11.848 4.23597 11.232 5.44297 11.054 6.70697C11.017 6.97197 10.999 7.23897 11 7.50697C9.07795 7.36497 7.30695 6.65697 5.84995 5.53697C5.07495 4.94097 4.38795 4.22797 3.81595 3.42097C3.49595 2.97097 2.87195 2.86397 2.42195 3.18397C2.26795 3.29297 2.15495 3.43697 2.08695 3.59297C2.08695 3.59297 1.95495 3.89197 1.80195 4.35297C1.68995 4.68997 1.56095 5.12797 1.44495 5.64297C1.28195 6.36497 1.14295 7.24497 1.11895 8.21397C1.08795 9.44097 1.23895 10.826 1.77095 12.21C2.45395 13.985 3.73695 15.688 5.91795 17.033C4.34895 17.759 2.67295 18.072 1.04495 18C0.49295 17.976 0.0259502 18.403 0.00195018 18.955C-0.0150498 19.344 0.19195 19.691 0.51495 19.873C5.41995 22.598 10.941 22.551 15.181 20.134C19.221 17.833 22 13.434 22 7.49997C21.999 7.33297 21.9919 7.16997 21.9769 7.01097C22.9829 5.89597 23.6529 4.58197 23.9729 3.22997C24.0999 2.69297 23.7669 2.15397 23.2299 2.02697C22.9399 1.95797 22.65 2.02397 22.423 2.18297H22.424Z" fill="white"/>
</g>
<defs>
<clipPath id="clip0_368_49">
<rect width="24" height="24" fill="white"/>
</clipPath>
</defs>
</svg>
