<svg width="24" height="24" viewBox="0 0 24 24" fill="none" xmlns="http://www.w3.org/2000/svg">
<g clip-path="url(#clip0_107_184)">
<path d="M10.66 6.00001H14C14.276 6.00001 14.525 6.11101 14.707 6.29301C14.889 6.47501 15 6.72401 15 7.00001V10.34C15 10.616 15.112 10.866 15.293 11.047L16.293 12.047C16.644 12.398 17.191 12.434 17.586 12.15L22 8.95801V17C22 17.552 22.448 18 23 18C23.552 18 24 17.552 24 17V7.00001C24.001 6.79901 23.939 6.59201 23.81 6.41401C23.486 5.96701 22.861 5.86601 22.414 6.19001L17.105 10.031L17 9.92601V7.00001C17 6.17201 16.663 5.42001 16.121 4.87901C15.579 4.33801 14.828 4.00001 14 4.00001H10.66C10.108 4.00001 9.66 4.44801 9.66 5.00001C9.66 5.55201 10.108 6.00001 10.66 6.00001ZM4.586 6.00001L15 16.414V17C15 17.276 14.889 17.525 14.707 17.707C14.525 17.889 14.276 18 14 18H3C2.724 18 2.475 17.889 2.293 17.707C2.111 17.525 2 17.276 2 17V7.00001C2 6.72401 2.111 6.47501 2.293 6.29301C2.475 6.11101 2.724 6.00001 3 6.00001H4.586ZM0.293 1.70701L2.611 4.02501C1.938 4.11201 1.334 4.42301 0.879 4.87901C0.337 5.42001 0 6.17201 0 7.00001V17C0 17.828 0.337 18.58 0.879 19.121C1.421 19.662 2.172 20 3 20H14C14.828 20 15.58 19.663 16.121 19.121C16.39 18.852 16.609 18.531 16.761 18.175L22.293 23.707C22.684 24.098 23.317 24.098 23.707 23.707C24.097 23.316 24.098 22.683 23.707 22.293L1.707 0.293006C1.316 -0.0979941 0.683 -0.0979941 0.293 0.293006C-0.097 0.684006 -0.098 1.31701 0.293 1.70701Z" fill="white"/>
</g>
<defs>
<clipPath id="clip0_107_184">
<rect width="24" height="24" fill="white"/>
</clipPath>
</defs>
</svg>
